<mxfile host="app.diagrams.net" modified="2024-04-07T10:00:00.000Z" agent="5.0 (Windows NT 10.0; Win64; x64) AppleWebKit/537.36 (KHTML, like Gecko) Chrome/86.0.4240.198 Safari/537.36" etag="3i8xtCoHiJ_Nh_V2rJkE" version="20.6.0">
  <diagram id="C5RBs43oDa-KdzZeNtuy" name="Firebase Additional Collections - Reports">
    <mxGraphModel dx="1422" dy="762" grid="1" gridSize="10" guides="1" tooltips="1" connect="1" arrows="1" fold="1" page="1" pageScale="1" pageWidth="827" pageHeight="1169" math="0" shadow="0">
      <root>
        <mxCell id="WIyWlLk6GJQsqaUBKTNV-0" />
        <mxCell id="WIyWlLk6GJQsqaUBKTNV-1" parent="WIyWlLk6GJQsqaUBKTNV-0" />

        <!-- TITLE -->
        <mxCell id="title" value="&lt;h1&gt;Colecciones Adicionales - Sistema de Reportes&lt;/h1&gt;" style="text;html=1;strokeColor=none;fillColor=none;align=center;verticalAlign=middle;whiteSpace=wrap;rounded=0;" vertex="1" parent="WIyWlLk6GJQsqaUBKTNV-1">
          <mxGeometry x="40" y="20" width="740" height="40" as="geometry" />
        </mxCell>

        <!-- REPORTS COLLECTION -->
        <mxCell id="reports-title" value="&lt;h2&gt;Colección: reports&lt;/h2&gt;" style="text;html=1;strokeColor=none;fillColor=none;align=left;verticalAlign=middle;whiteSpace=wrap;rounded=0;fontColor=#D6B656;" vertex="1" parent="WIyWlLk6GJQsqaUBKTNV-1">
          <mxGeometry x="40" y="80" width="250" height="30" as="geometry" />
        </mxCell>

        <mxCell id="reports-document" value="Documento: reportId" style="swimlane;fontStyle=0;childLayout=stackLayout;horizontal=1;startSize=30;horizontalStack=0;resizeParent=1;resizeParentMax=0;resizeLast=0;collapsible=1;marginBottom=0;whiteSpace=wrap;html=1;fillColor=#fff2cc;strokeColor=#d6b656;" vertex="1" parent="WIyWlLk6GJQsqaUBKTNV-1">
          <mxGeometry x="40" y="120" width="300" height="230" as="geometry" />
        </mxCell>
        <mxCell id="reports-reporterId" value="reporterId: string" style="text;strokeColor=none;fillColor=none;align=left;verticalAlign=middle;spacingLeft=4;spacingRight=4;overflow=hidden;points=[[0,0.5],[1,0.5]];portConstraint=eastwest;rotatable=0;whiteSpace=wrap;html=1;" vertex="1" parent="reports-document">
          <mxGeometry y="30" width="300" height="20" as="geometry" />
        </mxCell>
        <mxCell id="reports-reportedEntityType" value="reportedEntityType: string (user, plan, message, etc)" style="text;strokeColor=none;fillColor=none;align=left;verticalAlign=middle;spacingLeft=4;spacingRight=4;overflow=hidden;points=[[0,0.5],[1,0.5]];portConstraint=eastwest;rotatable=0;whiteSpace=wrap;html=1;" vertex="1" parent="reports-document">
          <mxGeometry y="50" width="300" height="20" as="geometry" />
        </mxCell>
        <mxCell id="reports-reportedEntityId" value="reportedEntityId: string" style="text;strokeColor=none;fillColor=none;align=left;verticalAlign=middle;spacingLeft=4;spacingRight=4;overflow=hidden;points=[[0,0.5],[1,0.5]];portConstraint=eastwest;rotatable=0;whiteSpace=wrap;html=1;" vertex="1" parent="reports-document">
          <mxGeometry y="70" width="300" height="20" as="geometry" />
        </mxCell>
        <mxCell id="reports-reason" value="reason: string" style="text;strokeColor=none;fillColor=none;align=left;verticalAlign=middle;spacingLeft=4;spacingRight=4;overflow=hidden;points=[[0,0.5],[1,0.5]];portConstraint=eastwest;rotatable=0;whiteSpace=wrap;html=1;" vertex="1" parent="reports-document">
          <mxGeometry y="90" width="300" height="20" as="geometry" />
        </mxCell>
        <mxCell id="reports-description" value="description: string | null" style="text;strokeColor=none;fillColor=none;align=left;verticalAlign=middle;spacingLeft=4;spacingRight=4;overflow=hidden;points=[[0,0.5],[1,0.5]];portConstraint=eastwest;rotatable=0;whiteSpace=wrap;html=1;" vertex="1" parent="reports-document">
          <mxGeometry y="110" width="300" height="20" as="geometry" />
        </mxCell>
        <mxCell id="reports-createdAt" value="createdAt: timestamp" style="text;strokeColor=none;fillColor=none;align=left;verticalAlign=middle;spacingLeft=4;spacingRight=4;overflow=hidden;points=[[0,0.5],[1,0.5]];portConstraint=eastwest;rotatable=0;whiteSpace=wrap;html=1;" vertex="1" parent="reports-document">
          <mxGeometry y="130" width="300" height="20" as="geometry" />
        </mxCell>
        <mxCell id="reports-status" value="status: string (pending, reviewing, resolved, rejected)" style="text;strokeColor=none;fillColor=none;align=left;verticalAlign=middle;spacingLeft=4;spacingRight=4;overflow=hidden;points=[[0,0.5],[1,0.5]];portConstraint=eastwest;rotatable=0;whiteSpace=wrap;html=1;" vertex="1" parent="reports-document">
          <mxGeometry y="150" width="300" height="20" as="geometry" />
        </mxCell>
        <mxCell id="reports-resolvedAt" value="resolvedAt: timestamp | null" style="text;strokeColor=none;fillColor=none;align=left;verticalAlign=middle;spacingLeft=4;spacingRight=4;overflow=hidden;points=[[0,0.5],[1,0.5]];portConstraint=eastwest;rotatable=0;whiteSpace=wrap;html=1;" vertex="1" parent="reports-document">
          <mxGeometry y="170" width="300" height="20" as="geometry" />
        </mxCell>
        <mxCell id="reports-actionTaken" value="actionTaken: string | null" style="text;strokeColor=none;fillColor=none;align=left;verticalAlign=middle;spacingLeft=4;spacingRight=4;overflow=hidden;points=[[0,0.5],[1,0.5]];portConstraint=eastwest;rotatable=0;whiteSpace=wrap;html=1;" vertex="1" parent="reports-document">
          <mxGeometry y="190" width="300" height="20" as="geometry" />
        </mxCell>
        <mxCell id="reports-resolvedById" value="resolvedById: string | null" style="text;strokeColor=none;fillColor=none;align=left;verticalAlign=middle;spacingLeft=4;spacingRight=4;overflow=hidden;points=[[0,0.5],[1,0.5]];portConstraint=eastwest;rotatable=0;whiteSpace=wrap;html=1;" vertex="1" parent="reports-document">
          <mxGeometry y="210" width="300" height="20" as="geometry" />
        </mxCell>

        <!-- REPORT REASONS COLLECTION -->
        <mxCell id="report-reasons-title" value="&lt;h2&gt;Colección: reportReasons&lt;/h2&gt;" style="text;html=1;strokeColor=none;fillColor=none;align=left;verticalAlign=middle;whiteSpace=wrap;rounded=0;fontColor=#D6B656;" vertex="1" parent="WIyWlLk6GJQsqaUBKTNV-1">
          <mxGeometry x="400" y="80" width="250" height="30" as="geometry" />
        </mxCell>

        <mxCell id="report-reasons-document" value="Documento: reasonId" style="swimlane;fontStyle=0;childLayout=stackLayout;horizontal=1;startSize=30;horizontalStack=0;resizeParent=1;resizeParentMax=0;resizeLast=0;collapsible=1;marginBottom=0;whiteSpace=wrap;html=1;fillColor=#fff2cc;strokeColor=#d6b656;" vertex="1" parent="WIyWlLk6GJQsqaUBKTNV-1">
          <mxGeometry x="400" y="120" width="300" height="150" as="geometry" />
        </mxCell>
        <mxCell id="report-reasons-name" value="name: string" style="text;strokeColor=none;fillColor=none;align=left;verticalAlign=middle;spacingLeft=4;spacingRight=4;overflow=hidden;points=[[0,0.5],[1,0.5]];portConstraint=eastwest;rotatable=0;whiteSpace=wrap;html=1;" vertex="1" parent="report-reasons-document">
          <mxGeometry y="30" width="300" height="20" as="geometry" />
        </mxCell>
        <mxCell id="report-reasons-description" value="description: string" style="text;strokeColor=none;fillColor=none;align=left;verticalAlign=middle;spacingLeft=4;spacingRight=4;overflow=hidden;points=[[0,0.5],[1,0.5]];portConstraint=eastwest;rotatable=0;whiteSpace=wrap;html=1;" vertex="1" parent="report-reasons-document">
          <mxGeometry y="50" width="300" height="20" as="geometry" />
        </mxCell>
        <mxCell id="report-reasons-severity" value="severity: number (1-5)" style="text;strokeColor=none;fillColor=none;align=left;verticalAlign=middle;spacingLeft=4;spacingRight=4;overflow=hidden;points=[[0,0.5],[1,0.5]];portConstraint=eastwest;rotatable=0;whiteSpace=wrap;html=1;" vertex="1" parent="report-reasons-document">
          <mxGeometry y="70" width="300" height="20" as="geometry" />
        </mxCell>
        <mxCell id="report-reasons-applicableEntityTypes" value="applicableEntityTypes: array&lt;string&gt;" style="text;strokeColor=none;fillColor=none;align=left;verticalAlign=middle;spacingLeft=4;spacingRight=4;overflow=hidden;points=[[0,0.5],[1,0.5]];portConstraint=eastwest;rotatable=0;whiteSpace=wrap;html=1;" vertex="1" parent="report-reasons-document">
          <mxGeometry y="90" width="300" height="20" as="geometry" />
        </mxCell>
        <mxCell id="report-reasons-active" value="active: boolean (default: true)" style="text;strokeColor=none;fillColor=none;align=left;verticalAlign=middle;spacingLeft=4;spacingRight=4;overflow=hidden;points=[[0,0.5],[1,0.5]];portConstraint=eastwest;rotatable=0;whiteSpace=wrap;html=1;" vertex="1" parent="report-reasons-document">
          <mxGeometry y="110" width="300" height="20" as="geometry" />
        </mxCell>
        <mxCell id="report-reasons-order" value="order: number" style="text;strokeColor=none;fillColor=none;align=left;verticalAlign=middle;spacingLeft=4;spacingRight=4;overflow=hidden;points=[[0,0.5],[1,0.5]];portConstraint=eastwest;rotatable=0;whiteSpace=wrap;html=1;" vertex="1" parent="report-reasons-document">
          <mxGeometry y="130" width="300" height="20" as="geometry" />
        </mxCell>

        <!-- USER STRIKES COLLECTION -->
        <mxCell id="user-strikes-title" value="&lt;h2&gt;Colección: userStrikes&lt;/h2&gt;" style="text;html=1;strokeColor=none;fillColor=none;align=left;verticalAlign=middle;whiteSpace=wrap;rounded=0;fontColor=#D6B656;" vertex="1" parent="WIyWlLk6GJQsqaUBKTNV-1">
          <mxGeometry x="40" y="380" width="250" height="30" as="geometry" />
        </mxCell>

        <mxCell id="user-strikes-document" value="Documento: userId" style="swimlane;fontStyle=0;childLayout=stackLayout;horizontal=1;startSize=30;horizontalStack=0;resizeParent=1;resizeParentMax=0;resizeLast=0;collapsible=1;marginBottom=0;whiteSpace=wrap;html=1;fillColor=#fff2cc;strokeColor=#d6b656;" vertex="1" parent="WIyWlLk6GJQsqaUBKTNV-1">
          <mxGeometry x="40" y="420" width="300" height="150" as="geometry" />
        </mxCell>
        <mxCell id="user-strikes-totalStrikes" value="totalStrikes: number (default: 0)" style="text;strokeColor=none;fillColor=none;align=left;verticalAlign=middle;spacingLeft=4;spacingRight=4;overflow=hidden;points=[[0,0.5],[1,0.5]];portConstraint=eastwest;rotatable=0;whiteSpace=wrap;html=1;" vertex="1" parent="user-strikes-document">
          <mxGeometry y="30" width="300" height="20" as="geometry" />
        </mxCell>
        <mxCell id="user-strikes-activeStrikes" value="activeStrikes: number (default: 0)" style="text;strokeColor=none;fillColor=none;align=left;verticalAlign=middle;spacingLeft=4;spacingRight=4;overflow=hidden;points=[[0,0.5],[1,0.5]];portConstraint=eastwest;rotatable=0;whiteSpace=wrap;html=1;" vertex="1" parent="user-strikes-document">
          <mxGeometry y="50" width="300" height="20" as="geometry" />
        </mxCell>
        <mxCell id="user-strikes-lastStrikeAt" value="lastStrikeAt: timestamp | null" style="text;strokeColor=none;fillColor=none;align=left;verticalAlign=middle;spacingLeft=4;spacingRight=4;overflow=hidden;points=[[0,0.5],[1,0.5]];portConstraint=eastwest;rotatable=0;whiteSpace=wrap;html=1;" vertex="1" parent="user-strikes-document">
          <mxGeometry y="70" width="300" height="20" as="geometry" />
        </mxCell>
        <mxCell id="user-strikes-restrictions" value="restrictions: array&lt;string&gt;" style="text;strokeColor=none;fillColor=none;align=left;verticalAlign=middle;spacingLeft=4;spacingRight=4;overflow=hidden;points=[[0,0.5],[1,0.5]];portConstraint=eastwest;rotatable=0;whiteSpace=wrap;html=1;" vertex="1" parent="user-strikes-document">
          <mxGeometry y="90" width="300" height="20" as="geometry" />
        </mxCell>
        <mxCell id="user-strikes-isSuspended" value="isSuspended: boolean (default: false)" style="text;strokeColor=none;fillColor=none;align=left;verticalAlign=middle;spacingLeft=4;spacingRight=4;overflow=hidden;points=[[0,0.5],[1,0.5]];portConstraint=eastwest;rotatable=0;whiteSpace=wrap;html=1;" vertex="1" parent="user-strikes-document">
          <mxGeometry y="110" width="300" height="20" as="geometry" />
        </mxCell>
        <mxCell id="user-strikes-suspendedUntil" value="suspendedUntil: timestamp | null" style="text;strokeColor=none;fillColor=none;align=left;verticalAlign=middle;spacingLeft=4;spacingRight=4;overflow=hidden;points=[[0,0.5],[1,0.5]];portConstraint=eastwest;rotatable=0;whiteSpace=wrap;html=1;" vertex="1" parent="user-strikes-document">
          <mxGeometry y="130" width="300" height="20" as="geometry" />
        </mxCell>

        <!-- USER STRIKES HISTORY SUBCOLLECTION -->
        <mxCell id="strike-history-title" value="&lt;h2&gt;Subcollección: strikeHistory&lt;/h2&gt;" style="text;html=1;strokeColor=none;fillColor=none;align=left;verticalAlign=middle;whiteSpace=wrap;rounded=0;fontColor=#D6B656;" vertex="1" parent="WIyWlLk6GJQsqaUBKTNV-1">
          <mxGeometry x="400" y="380" width="250" height="30" as="geometry" />
        </mxCell>

        <mxCell id="strike-history-document" value="Documento: strikeId" style="swimlane;fontStyle=0;childLayout=stackLayout;horizontal=1;startSize=30;horizontalStack=0;resizeParent=1;resizeParentMax=0;resizeLast=0;collapsible=1;marginBottom=0;whiteSpace=wrap;html=1;fillColor=#fff2cc;strokeColor=#d6b656;" vertex="1" parent="WIyWlLk6GJQsqaUBKTNV-1">
          <mxGeometry x="400" y="420" width="300" height="150" as="geometry" />
        </mxCell>
        <mxCell id="strike-history-reason" value="reason: string" style="text;strokeColor=none;fillColor=none;align=left;verticalAlign=middle;spacingLeft=4;spacingRight=4;overflow=hidden;points=[[0,0.5],[1,0.5]];portConstraint=eastwest;rotatable=0;whiteSpace=wrap;html=1;" vertex="1" parent="strike-history-document">
          <mxGeometry y="30" width="300" height="20" as="geometry" />
        </mxCell>
        <mxCell id="strike-history-description" value="description: string" style="text;strokeColor=none;fillColor=none;align=left;verticalAlign=middle;spacingLeft=4;spacingRight=4;overflow=hidden;points=[[0,0.5],[1,0.5]];portConstraint=eastwest;rotatable=0;whiteSpace=wrap;html=1;" vertex="1" parent="strike-history-document">
          <mxGeometry y="50" width="300" height="20" as="geometry" />
        </mxCell>
        <mxCell id="strike-history-createdAt" value="createdAt: timestamp" style="text;strokeColor=none;fillColor=none;align=left;verticalAlign=middle;spacingLeft=4;spacingRight=4;overflow=hidden;points=[[0,0.5],[1,0.5]];portConstraint=eastwest;rotatable=0;whiteSpace=wrap;html=1;" vertex="1" parent="strike-history-document">
          <mxGeometry y="70" width="300" height="20" as="geometry" />
        </mxCell>
        <mxCell id="strike-history-expiresAt" value="expiresAt: timestamp | null" style="text;strokeColor=none;fillColor=none;align=left;verticalAlign=middle;spacingLeft=4;spacingRight=4;overflow=hidden;points=[[0,0.5],[1,0.5]];portConstraint=eastwest;rotatable=0;whiteSpace=wrap;html=1;" vertex="1" parent="strike-history-document">
          <mxGeometry y="90" width="300" height="20" as="geometry" />
        </mxCell>
        <mxCell id="strike-history-isActive" value="isActive: boolean (default: true)" style="text;strokeColor=none;fillColor=none;align=left;verticalAlign=middle;spacingLeft=4;spacingRight=4;overflow=hidden;points=[[0,0.5],[1,0.5]];portConstraint=eastwest;rotatable=0;whiteSpace=wrap;html=1;" vertex="1" parent="strike-history-document">
          <mxGeometry y="110" width="300" height="20" as="geometry" />
        </mxCell>
        <mxCell id="strike-history-adminId" value="adminId: string" style="text;strokeColor=none;fillColor=none;align=left;verticalAlign=middle;spacingLeft=4;spacingRight=4;overflow=hidden;points=[[0,0.5],[1,0.5]];portConstraint=eastwest;rotatable=0;whiteSpace=wrap;html=1;" vertex="1" parent="strike-history-document">
          <mxGeometry y="130" width="300" height="20" as="geometry" />
        </mxCell>

        <!-- DESIGN NOTES -->
        <mxCell id="design-notes" value="&lt;h3&gt;Notas de diseño - Sistema de Reportes&lt;/h3&gt;&lt;p&gt;1. El sistema permite a los usuarios reportar contenido o comportamiento inapropiado&lt;br&gt;2. Los reportes se pueden hacer sobre diferentes entidades (usuarios, planes, mensajes, etc)&lt;br&gt;3. Los administradores pueden revisar los reportes y tomar acciones&lt;br&gt;4. El sistema de strikes permite un modelo de sanciones progresivas&lt;br&gt;5. La colección reportReasons proporciona categorías predefinidas para los reportes&lt;/p&gt;" style="shape=note;strokeWidth=2;fontSize=14;size=20;whiteSpace=wrap;html=1;fillColor=#fff2cc;strokeColor=#d6b656;fontColor=#666600;align=left;spacing=8;" vertex="1" parent="WIyWlLk6GJQsqaUBKTNV-1">
          <mxGeometry x="40" y="600" width="660" height="150" as="geometry" />
        </mxCell>

        <!-- IMPLEMENTATION RECOMMENDATIONS -->
        <mxCell id="implementation-title" value="&lt;h2&gt;Recomendaciones de implementación&lt;/h2&gt;" style="text;html=1;strokeColor=none;fillColor=none;align=left;verticalAlign=middle;whiteSpace=wrap;rounded=0;fontColor=#D6B656;" vertex="1" parent="WIyWlLk6GJQsqaUBKTNV-1">
          <mxGeometry x="40" y="780" width="360" height="30" as="geometry" />
        </mxCell>

        <mxCell id="implementation-list" value="&lt;ul&gt;&lt;li&gt;Implementar un sistema de notificaciones para los administradores cuando se crean nuevos reportes&lt;/li&gt;&lt;li&gt;Utilizar Cloud Functions para actualizar automáticamente el contador de reportes en las entidades reportadas&lt;/li&gt;&lt;li&gt;Crear un panel de administración para gestionar reportes y strikes&lt;/li&gt;&lt;li&gt;Implementar caducidad automática de strikes después de un período definido&lt;/li&gt;&lt;li&gt;Definir umbrales claros para la aplicación de sanciones basadas en el número de strikes&lt;/li&gt;&lt;/ul&gt;" style="text;html=1;strokeColor=none;fillColor=none;align=left;verticalAlign=top;whiteSpace=wrap;rounded=0;" vertex="1" parent="WIyWlLk6GJQsqaUBKTNV-1">
          <mxGeometry x="40" y="820" width="660" height="110" as="geometry" />
        </mxCell>

      </root>
    </mxGraphModel>
  </diagram>
</mxfile>